<svg xmlns="http://www.w3.org/2000/svg" width="89.457" height="89.713" viewBox="0 0 89.457 89.713">
  <g id="Group_3116" data-name="Group 3116" transform="translate(-5163 -2478.566)">
    <g id="Group_3114" data-name="Group 3114" transform="translate(5163 2478.566)">
      <path id="a" d="M209.1,286.661c-5.045-1.167-13.338-1.93-22.713-1.93s-17.669.762-22.713,1.93A26.085,26.085,0,0,0,143.58,306.81c-1.164,5.059-1.924,13.376-1.924,22.778s.76,17.719,1.924,22.779a26.085,26.085,0,0,0,20.091,20.148c5.045,1.168,13.338,1.93,22.713,1.93s17.668-.762,22.713-1.93a26.085,26.085,0,0,0,20.091-20.148c1.164-5.06,1.924-13.376,1.924-22.779s-.76-17.719-1.924-22.778A26.085,26.085,0,0,0,209.1,286.661Z" transform="translate(-141.656 -284.731)" fill="#1070ca" fill-rule="evenodd"/>
    </g>
    <g id="Group_3115" data-name="Group 3115" transform="translate(5185.688 2504.416)">
      <path id="Path_6181" data-name="Path 6181" d="M186.706,362.035a49.938,49.938,0,0,1-7.227-1.563c-9.065-3.4-14.289-10.088-14.9-19.7-.5-7.844-.1-15.744-.1-23.777h22.233Z" transform="translate(-164.323 -316.843)" fill="#fff"/>
      <path id="Path_6182" data-name="Path 6182" d="M231.779,327.884a11.169,11.169,0,1,1-11.272-11.155A11.147,11.147,0,0,1,231.779,327.884Z" transform="translate(-183.33 -316.728)" fill="#fff"/>
    </g>
  </g>
</svg>
